g 0
v 0.095 -0.1 0.07
v 0 -0.1 0.07
v 0.0140909 -0.1 0.0685671
v 0.0691928 -0.1 0.0105999
v 0.0699102 -0.1 -0.00354544
v 0.095 -0.1 -0.07
v 0.0677654 -0.1 -0.0175457
v 0.0628463 -0.1 -0.0308276
v 0.0339711 -0.1 -0.0612043
v 0.0209554 -0.1 -0.0667897
v 0.00708178 -0.1 -0.0696409
v 0 -0.1 -0.07
v 0.0276049 -0.1 0.064327
v 0.0399888 -0.1 0.0574534
v 0.0507355 -0.1 0.0482277
v 0.0594051 -0.1 0.0370275
v 0.0656426 -0.1 0.0243114
v 0.0553543 -0.1 -0.0428474
v 0.0455961 -0.1 -0.0531131
v -0.075 0 -0.07
v -0.095 0 -0.07
v -0.095 0.0136563 -0.068655
v -0.075 0.0136563 -0.068655
v -0.095 0.0267878 -0.0646716
v -0.075 0.0267878 -0.0646716
v -0.095 0.0388899 -0.0582029
v -0.075 0.0388899 -0.0582029
v -0.095 0.0494975 -0.0494975
v -0.075 0.0494975 -0.0494975
v -0.095 0.0582029 -0.0388899
v -0.075 0.0582029 -0.0388899
v -0.095 0.0646716 -0.0267878
v -0.075 0.0646716 -0.0267878
v -0.095 0.068655 -0.0136563
v -0.075 0.068655 -0.0136563
v -0.095 0.07 0
v -0.075 0.07 0
v -0.095 0.068655 0.0136563
v -0.075 0.068655 0.0136563
v -0.095 0.0646716 0.0267878
v -0.075 0.0646716 0.0267878
v -0.095 0.0582029 0.0388899
v -0.075 0.0582029 0.0388899
v -0.095 0.0494975 0.0494975
v -0.075 0.0494975 0.0494975
v -0.095 0.0388899 0.0582029
v -0.075 0.0388899 0.0582029
v -0.095 0.0267878 0.0646716
v -0.075 0.0267878 0.0646716
v -0.095 0.0136563 0.068655
v -0.075 0.0136563 0.068655
v -0.095 0 0.07
v -0.075 0 0.07
v -0.075 -0.08 0.07
v 0.095 0 0.07
v 0.075 0 0.07
v 0.095 -0.1 0.07
v 0.075 -0.08 0.07
v 0 -0.1 0.07
v -0.095 -0.1 0.07
v 0.075 -0.08 -0.07
v 0.075 0 -0.07
v 0.095 0 -0.07
v -0.095 0 -0.07
v -0.075 0 -0.07
v -0.095 -0.1 -0.07
v -0.075 -0.08 -0.07
v 0 -0.1 -0.07
v 0.095 -0.1 -0.07
v 0.075 0.0136563 -0.068655
v 0.095 0.0136563 -0.068655
v 0.075 0.0267878 -0.0646716
v 0.095 0.0267878 -0.0646716
v 0.075 0.0388899 -0.0582029
v 0.095 0.0388899 -0.0582029
v 0.075 0.0494975 -0.0494975
v 0.095 0.0494975 -0.0494975
v 0.075 0.0582029 -0.0388899
v 0.095 0.0582029 -0.0388899
v 0.075 0.0646716 -0.0267878
v 0.095 0.0646716 -0.0267878
v 0.075 0.068655 -0.0136563
v 0.095 0.068655 -0.0136563
v 0.075 0.07 0
v 0.095 0.07 0
v 0.075 0.068655 0.0136563
v 0.095 0.068655 0.0136563
v 0.075 0.0646716 0.0267878
v 0.095 0.0646716 0.0267878
v 0.075 0.0582029 0.0388899
v 0.095 0.0582029 0.0388899
v 0.075 0.0494975 0.0494975
v 0.095 0.0494975 0.0494975
v 0.075 0.0388899 0.0582029
v 0.095 0.0388899 0.0582029
v 0.075 0.0267878 0.0646716
v 0.095 0.0267878 0.0646716
v 0.075 0.0136563 0.068655
v 0.095 0.0136563 0.068655
v 0.075 0 0.07
v 0.095 0 0.07
v -0.0140909 -0.1 0.0685671
v 0 -0.1 0.07
v -0.095 -0.1 0.07
v -0.0276049 -0.1 0.064327
v -0.095 -0.1 -0.07
v -0.0699102 -0.1 -0.00354544
v -0.0691928 -0.1 0.0105999
v -0.0656426 -0.1 0.0243114
v -0.0594051 -0.1 0.0370275
v -0.0507355 -0.1 0.0482277
v -0.0399888 -0.1 0.0574534
v -0.0209554 -0.1 -0.0667897
v -0.00708178 -0.1 -0.0696409
v 0 -0.1 -0.07
v -0.0339711 -0.1 -0.0612043
v -0.0455961 -0.1 -0.0531131
v -0.0553543 -0.1 -0.0428474
v -0.0628463 -0.1 -0.0308276
v -0.0677654 -0.1 -0.0175457
v 0.095 -0.1 0.07
v 0.095 -0.1 -0.07
v 0.095 0 -0.07
v 0.095 0.0136563 -0.068655
v 0.095 0.07 0
v 0.095 0.068655 0.0136563
v 0.095 0.0494975 -0.0494975
v 0.095 0.0582029 -0.0388899
v 0.095 0.0267878 -0.0646716
v 0.095 0 0.07
v 0.095 0.0388899 -0.0582029
v 0.095 0.0646716 -0.0267878
v 0.095 0.068655 -0.0136563
v 0.095 0.0388899 0.0582029
v 0.095 0.0267878 0.0646716
v 0.095 0.0136563 0.068655
v 0.095 0.0646716 0.0267878
v 0.095 0.0582029 0.0388899
v 0.095 0.0494975 0.0494975
v -0.095 -0.1 -0.07
v -0.095 -0.1 0.07
v -0.095 0 -0.07
v -0.095 0 0.07
v -0.095 0.0136563 -0.068655
v -0.095 0.0136563 0.068655
v -0.095 0.0267878 0.0646716
v -0.095 0.0388899 0.0582029
v -0.095 0.0494975 0.0494975
v -0.095 0.0582029 0.0388899
v -0.095 0.0646716 0.0267878
v -0.095 0.068655 0.0136563
v -0.095 0.07 0
v -0.095 0.068655 -0.0136563
v -0.095 0.0646716 -0.0267878
v -0.095 0.0582029 -0.0388899
v -0.095 0.0494975 -0.0494975
v -0.095 0.0388899 -0.0582029
v -0.095 0.0267878 -0.0646716
v -0.075 -0.08 -0.07
v -0.075 -0.08 0.07
v 0.075 -0.08 -0.07
v 0.075 -0.08 0.07
v -0.075 0 0.07
v -0.075 0 -0.07
v -0.075 0.0136563 -0.068655
v -0.075 0.07 0
v -0.075 0.068655 0.0136563
v -0.075 0.0494975 -0.0494975
v -0.075 0.0582029 -0.0388899
v -0.075 0.0267878 -0.0646716
v -0.075 0.0388899 -0.0582029
v -0.075 0.0646716 -0.0267878
v -0.075 0.068655 -0.0136563
v -0.075 0.0388899 0.0582029
v -0.075 0.0267878 0.0646716
v -0.075 0.0136563 0.068655
v -0.075 0.0646716 0.0267878
v -0.075 0.0582029 0.0388899
v -0.075 0.0494975 0.0494975
v 0.075 0 -0.07
v 0.075 0 0.07
v 0.075 0.0136563 -0.068655
v 0.075 0.0136563 0.068655
v 0.075 0.0267878 0.0646716
v 0.075 0.0388899 0.0582029
v 0.075 0.0494975 0.0494975
v 0.075 0.0582029 0.0388899
v 0.075 0.0646716 0.0267878
v 0.075 0.068655 0.0136563
v 0.075 0.07 0
v 0.075 0.068655 -0.0136563
v 0.075 0.0646716 -0.0267878
v 0.075 0.0582029 -0.0388899
v 0.075 0.0494975 -0.0494975
v 0.075 0.0388899 -0.0582029
v 0.075 0.0267878 -0.0646716
v 0.00708178 -0.145 -0.0696409
v 2.57176e-17 -0.145 -0.07
v 8.57253e-18 -0.1 -0.07
v -0.00708178 -0.1 -0.0696409
v -0.00708178 -0.145 -0.0696409
v -0.0209554 -0.145 -0.0667897
v -0.0209554 -0.1 -0.0667897
v -0.0339711 -0.145 -0.0612043
v -0.0339711 -0.1 -0.0612043
v -0.0455961 -0.145 -0.0531131
v -0.0455961 -0.1 -0.0531131
v -0.0553543 -0.145 -0.0428474
v -0.0553543 -0.1 -0.0428474
v -0.0628463 -0.145 -0.0308276
v -0.0628463 -0.1 -0.0308276
v -0.0677654 -0.145 -0.0175457
v -0.0677654 -0.1 -0.0175457
v -0.0699102 -0.145 -0.00354544
v -0.0699102 -0.1 -0.00354544
v -0.0691928 -0.145 0.0105999
v -0.0691928 -0.1 0.0105999
v -0.0656426 -0.145 0.0243114
v -0.0656426 -0.1 0.0243114
v -0.0594051 -0.145 0.0370275
v -0.0594051 -0.1 0.0370275
v -0.0507355 -0.145 0.0482277
v -0.0507355 -0.1 0.0482277
v -0.0399888 -0.145 0.0574534
v -0.0399888 -0.1 0.0574534
v -0.0276049 -0.145 0.064327
v -0.0276049 -0.1 0.064327
v -0.0140909 -0.145 0.0685671
v -0.0140909 -0.1 0.0685671
v 0 -0.145 0.07
v 0 -0.1 0.07
v 0.0140909 -0.145 0.0685671
v 0.0140909 -0.1 0.0685671
v 0.0276049 -0.145 0.064327
v 0.0276049 -0.1 0.064327
v 0.0399888 -0.145 0.0574534
v 0.0399888 -0.1 0.0574534
v 0.0507355 -0.145 0.0482277
v 0.0507355 -0.1 0.0482277
v 0.0594051 -0.145 0.0370275
v 0.0594051 -0.1 0.0370275
v 0.0656426 -0.145 0.0243114
v 0.0656426 -0.1 0.0243114
v 0.0691928 -0.145 0.0105999
v 0.0691928 -0.1 0.0105999
v 0.0699102 -0.145 -0.00354544
v 0.0699102 -0.1 -0.00354544
v 0.0677654 -0.145 -0.0175457
v 0.0677654 -0.1 -0.0175457
v 0.0628463 -0.145 -0.0308276
v 0.0628463 -0.1 -0.0308276
v 0.0553543 -0.145 -0.0428474
v 0.0553543 -0.1 -0.0428474
v 0.0455961 -0.145 -0.0531131
v 0.0455961 -0.1 -0.0531131
v 0.0339711 -0.145 -0.0612043
v 0.0339711 -0.1 -0.0612043
v 0.0209554 -0.145 -0.0667897
v 0.0209554 -0.1 -0.0667897
v 0.00708178 -0.145 -0.0696409
v 0.00708178 -0.1 -0.0696409
v 8.57253e-18 -0.1 -0.07
v 8.57253e-18 -0.145 -0.07
v 0 -0.145 0
v -0.00708178 -0.145 -0.0696409
v -0.0455961 -0.145 -0.0531131
v -0.0339711 -0.145 -0.0612043
v -0.0209554 -0.145 -0.0667897
v -0.0677654 -0.145 -0.0175457
v -0.0628463 -0.145 -0.0308276
v -0.0553543 -0.145 -0.0428474
v -0.0656426 -0.145 0.0243114
v -0.0691928 -0.145 0.0105999
v -0.0699102 -0.145 -0.00354544
v -0.0399888 -0.145 0.0574534
v -0.0507355 -0.145 0.0482277
v -0.0594051 -0.145 0.0370275
v 0 -0.145 0.07
v -0.0140909 -0.145 0.0685671
v -0.0276049 -0.145 0.064327
v 0.0399888 -0.145 0.0574534
v 0.0276049 -0.145 0.064327
v 0.0140909 -0.145 0.0685671
v 0.0656426 -0.145 0.0243114
v 0.0594051 -0.145 0.0370275
v 0.0507355 -0.145 0.0482277
v 0.0677654 -0.145 -0.0175457
v 0.0699102 -0.145 -0.00354544
v 0.0691928 -0.145 0.0105999
v 0.0455961 -0.145 -0.0531131
v 0.0553543 -0.145 -0.0428474
v 0 -0.145 0
v 0.0628463 -0.145 -0.0308276
v 0.00708178 -0.145 -0.0696409
v 0.0209554 -0.145 -0.0667897
v 0.0339711 -0.145 -0.0612043
vn 0 -1 0
vn 0 0.0980172 -0.995185
vn 0 0.290285 -0.95694
vn 0 0.471397 -0.881921
vn 0 0.634393 -0.77301
vn 0 0.77301 -0.634393
vn 0 0.881921 -0.471397
vn 0 0.95694 -0.290285
vn 0 0.995185 -0.0980172
vn 0 0.995185 0.0980172
vn 0 0.95694 0.290285
vn 0 0.881921 0.471397
vn 0 0.77301 0.634393
vn 0 0.634393 0.77301
vn 0 0.471397 0.881921
vn 0 0.290285 0.95694
vn 0 0.0980172 0.995185
vn 0 0 1
vn 0 0 -1
vn 0 0.0980172 -0.995185
vn 0 0.290285 -0.95694
vn 0 0.471397 -0.881921
vn 0 0.634393 -0.77301
vn 0 0.77301 -0.634393
vn 0 0.881921 -0.471397
vn 0 0.95694 -0.290285
vn 0 0.995185 -0.0980172
vn 0 0.995185 0.0980172
vn 0 0.95694 0.290285
vn 0 0.881921 0.471397
vn 0 0.77301 0.634393
vn 0 0.634393 0.77301
vn 0 0.471397 0.881921
vn 0 0.290285 0.95694
vn 0 0.0980172 0.995185
vn 0 -1 0
vn 1 0 0
vn -1 0 0
vn 0 1 0
vn 0.0506492 1.9909e-17 -0.998717
vn -0.0506492 -1.92974e-17 -0.998717
vn -0.201299 -0 -0.97953
vn -0.394356 -0 -0.918958
vn -0.571268 -0 -0.820763
vn -0.724793 -0 -0.688967
vn -0.848644 -0 -0.528964
vn -0.937752 -0 -0.347305
vn -0.988468 -0 -0.151428
vn -0.998717 0 0.0506491
vn -0.968077 0 0.250653
vn -0.897805 0 0.440394
vn -0.790776 0 0.612106
vn -0.651373 0 0.758758
vn -0.485302 0 0.874347
vn -0.299363 0 0.954139
vn -0.101168 0 0.994869
vn 0.101168 0 0.994869
vn 0.299363 0 0.954139
vn 0.485302 0 0.874347
vn 0.651373 0 0.758758
vn 0.790776 0 0.612106
vn 0.897805 0 0.440394
vn 0.968077 0 0.250653
vn 0.998717 0 0.0506491
vn 0.988468 0 -0.151428
vn 0.937752 0 -0.347305
vn 0.848644 0 -0.528964
vn 0.724793 0 -0.688967
vn 0.571268 0 -0.820763
vn 0.394356 0 -0.918958
vn 0.201299 0 -0.97953
vn 0.0506492 0 -0.998717
vn 0 -1 0
f 1//1 2//1 3//1
f 1//1 4//1 5//1
f 1//1 5//1 6//1
f 6//1 5//1 7//1
f 6//1 7//1 8//1
f 9//1 10//1 6//1
f 6//1 10//1 11//1
f 6//1 11//1 12//1
f 3//1 13//1 1//1
f 1//1 13//1 14//1
f 1//1 14//1 15//1
f 15//1 16//1 1//1
f 1//1 16//1 17//1
f 1//1 17//1 4//1
f 8//1 18//1 6//1
f 6//1 18//1 19//1
f 6//1 19//1 9//1
f 20//2 21//2 22//2
f 20//2 22//2 23//2
f 23//3 22//3 24//3
f 23//3 24//3 25//3
f 25//4 24//4 26//4
f 25//4 26//4 27//4
f 27//5 26//5 28//5
f 27//5 28//5 29//5
f 29//6 28//6 30//6
f 29//6 30//6 31//6
f 31//7 30//7 32//7
f 31//7 32//7 33//7
f 33//8 32//8 34//8
f 33//8 34//8 35//8
f 35//9 34//9 36//9
f 35//9 36//9 37//9
f 37//10 36//10 38//10
f 37//10 38//10 39//10
f 39//11 38//11 40//11
f 39//11 40//11 41//11
f 41//12 40//12 42//12
f 41//12 42//12 43//12
f 43//13 42//13 44//13
f 43//13 44//13 45//13
f 45//14 44//14 46//14
f 45//14 46//14 47//14
f 47//15 46//15 48//15
f 47//15 48//15 49//15
f 49//16 48//16 50//16
f 49//16 50//16 51//16
f 51//17 50//17 52//17
f 51//17 52//17 53//17
f 54//18 53//18 52//18
f 55//18 56//18 57//18
f 57//18 56//18 58//18
f 57//18 58//18 59//18
f 59//18 58//18 54//18
f 59//18 54//18 60//18
f 60//18 54//18 52//18
f 61//19 62//19 63//19
f 64//19 65//19 66//19
f 66//19 65//19 67//19
f 66//19 67//19 68//19
f 68//19 67//19 61//19
f 68//19 61//19 69//19
f 69//19 61//19 63//19
f 63//20 62//20 70//20
f 63//20 70//20 71//20
f 71//21 70//21 72//21
f 71//21 72//21 73//21
f 73//22 72//22 74//22
f 73//22 74//22 75//22
f 75//23 74//23 76//23
f 75//23 76//23 77//23
f 77//24 76//24 78//24
f 77//24 78//24 79//24
f 79//25 78//25 80//25
f 79//25 80//25 81//25
f 81//26 80//26 82//26
f 81//26 82//26 83//26
f 83//27 82//27 84//27
f 83//27 84//27 85//27
f 85//28 84//28 86//28
f 85//28 86//28 87//28
f 87//29 86//29 88//29
f 87//29 88//29 89//29
f 89//30 88//30 90//30
f 89//30 90//30 91//30
f 91//31 90//31 92//31
f 91//31 92//31 93//31
f 93//32 92//32 94//32
f 93//32 94//32 95//32
f 95//33 94//33 96//33
f 95//33 96//33 97//33
f 97//34 96//34 98//34
f 97//34 98//34 99//34
f 99//35 98//35 100//35
f 99//35 100//35 101//35
f 102//36 103//36 104//36
f 102//36 104//36 105//36
f 104//36 106//36 107//36
f 107//36 108//36 104//36
f 104//36 108//36 109//36
f 104//36 109//36 110//36
f 110//36 111//36 104//36
f 104//36 111//36 112//36
f 104//36 112//36 105//36
f 113//36 106//36 114//36
f 114//36 106//36 115//36
f 113//36 116//36 106//36
f 106//36 116//36 117//36
f 106//36 117//36 118//36
f 118//36 119//36 106//36
f 106//36 119//36 120//36
f 106//36 120//36 107//36
f 121//37 122//37 101//37
f 101//37 122//37 123//37
f 101//37 123//37 124//37
f 125//37 126//37 101//37
f 101//37 127//37 128//37
f 124//37 129//37 130//37
f 130//37 129//37 131//37
f 130//37 131//37 127//37
f 128//37 132//37 130//37
f 130//37 132//37 133//37
f 130//37 133//37 125//37
f 134//37 135//37 136//37
f 126//37 137//37 130//37
f 130//37 137//37 138//37
f 130//37 138//37 136//37
f 136//37 138//37 139//37
f 136//37 139//37 134//37
f 140//38 141//38 142//38
f 142//38 141//38 143//38
f 142//38 143//38 144//38
f 144//38 143//38 145//38
f 144//38 145//38 146//38
f 146//38 147//38 144//38
f 144//38 147//38 148//38
f 144//38 148//38 149//38
f 149//38 150//38 144//38
f 144//38 150//38 151//38
f 144//38 151//38 152//38
f 152//38 153//38 144//38
f 144//38 153//38 154//38
f 144//38 154//38 155//38
f 155//38 156//38 144//38
f 144//38 156//38 157//38
f 144//38 157//38 158//38
f 159//39 160//39 161//39
f 161//39 160//39 162//39
f 160//37 159//37 163//37
f 163//37 159//37 164//37
f 163//37 164//37 165//37
f 166//37 167//37 163//37
f 163//37 168//37 169//37
f 165//37 170//37 163//37
f 163//37 170//37 171//37
f 163//37 171//37 168//37
f 169//37 172//37 163//37
f 163//37 172//37 173//37
f 163//37 173//37 166//37
f 174//37 175//37 176//37
f 167//37 177//37 163//37
f 163//37 177//37 178//37
f 163//37 178//37 176//37
f 176//37 178//37 179//37
f 176//37 179//37 174//37
f 161//38 162//38 180//38
f 180//38 162//38 181//38
f 180//38 181//38 182//38
f 182//38 181//38 183//38
f 182//38 183//38 184//38
f 184//38 185//38 182//38
f 182//38 185//38 186//38
f 182//38 186//38 187//38
f 187//38 188//38 182//38
f 182//38 188//38 189//38
f 182//38 189//38 190//38
f 190//38 191//38 182//38
f 182//38 191//38 192//38
f 182//38 192//38 193//38
f 193//38 194//38 182//38
f 182//38 194//38 195//38
f 182//38 195//38 196//38
f 197//40 198//40 199//40
f 199//41 198//41 200//41
f 198//41 201//41 200//41
f 200//42 201//42 202//42
f 200//42 202//42 203//42
f 203//43 202//43 204//43
f 203//43 204//43 205//43
f 205//44 204//44 206//44
f 205//44 206//44 207//44
f 207//45 206//45 208//45
f 207//45 208//45 209//45
f 209//46 208//46 210//46
f 209//46 210//46 211//46
f 211//47 210//47 212//47
f 211//47 212//47 213//47
f 213//48 212//48 214//48
f 213//48 214//48 215//48
f 215//49 214//49 216//49
f 215//49 216//49 217//49
f 217//50 216//50 218//50
f 217//50 218//50 219//50
f 219//51 218//51 220//51
f 219//51 220//51 221//51
f 221//52 220//52 222//52
f 221//52 222//52 223//52
f 223//53 222//53 224//53
f 223//53 224//53 225//53
f 225//54 224//54 226//54
f 225//54 226//54 227//54
f 227//55 226//55 228//55
f 227//55 228//55 229//55
f 229//56 228//56 230//56
f 229//56 230//56 231//56
f 231//57 230//57 232//57
f 231//57 232//57 233//57
f 233//58 232//58 234//58
f 233//58 234//58 235//58
f 235//59 234//59 236//59
f 235//59 236//59 237//59
f 237//60 236//60 238//60
f 237//60 238//60 239//60
f 239//61 238//61 240//61
f 239//61 240//61 241//61
f 241//62 240//62 242//62
f 241//62 242//62 243//62
f 243//63 242//63 244//63
f 243//63 244//63 245//63
f 245//64 244//64 246//64
f 245//64 246//64 247//64
f 247//65 246//65 248//65
f 247//65 248//65 249//65
f 249//66 248//66 250//66
f 249//66 250//66 251//66
f 251//67 250//67 252//67
f 251//67 252//67 253//67
f 253//68 252//68 254//68
f 253//68 254//68 255//68
f 255//69 254//69 256//69
f 255//69 256//69 257//69
f 257//70 256//70 258//70
f 257//70 258//70 259//70
f 259//71 258//71 260//71
f 259//71 260//71 261//71
f 261//72 260//72 262//72
f 263//73 260//73 264//73
f 263//73 264//73 265//73
f 266//73 267//73 264//73
f 264//73 267//73 268//73
f 264//73 268//73 265//73
f 269//73 270//73 264//73
f 264//73 270//73 271//73
f 264//73 271//73 266//73
f 272//73 273//73 264//73
f 264//73 273//73 274//73
f 264//73 274//73 269//73
f 275//73 276//73 264//73
f 264//73 276//73 277//73
f 264//73 277//73 272//73
f 278//73 279//73 264//73
f 264//73 279//73 280//73
f 264//73 280//73 275//73
f 281//73 282//73 264//73
f 264//73 282//73 283//73
f 264//73 283//73 278//73
f 284//73 285//73 264//73
f 264//73 285//73 286//73
f 264//73 286//73 281//73
f 287//73 288//73 264//73
f 264//73 288//73 289//73
f 264//73 289//73 284//73
f 290//73 291//73 292//73
f 292//73 291//73 293//73
f 292//73 293//73 287//73
f 294//73 295//73 292//73
f 292//73 295//73 296//73
f 292//73 296//73 290//73
