g 0
v 0.075 -0.1 0.095
v -0.075 -0.1 0.095
v 0.075 -0.1 0.075
v -0.075 -0.1 0.075
v 0.075 0 -0.075
v 0.075 0 -0.095
v 0.0731196 0.0166891 -0.095
v 0.0731196 0.0166891 -0.075
v 0.0675727 0.0325413 -0.095
v 0.0675727 0.0325413 -0.075
v 0.0586374 0.0467617 -0.095
v 0.0586374 0.0467617 -0.075
v 0.0467617 0.0586374 -0.095
v 0.0467617 0.0586374 -0.075
v 0.0325413 0.0675727 -0.095
v 0.0325413 0.0675727 -0.075
v 0.0166891 0.0731196 -0.095
v 0.0166891 0.0731196 -0.075
v -4.59243e-18 0.075 -0.095
v -4.59243e-18 0.075 -0.075
v -0.0166891 0.0731196 -0.095
v -0.0166891 0.0731196 -0.075
v -0.0325413 0.0675727 -0.095
v -0.0325413 0.0675727 -0.075
v -0.0467617 0.0586374 -0.095
v -0.0467617 0.0586374 -0.075
v -0.0586374 0.0467617 -0.095
v -0.0586374 0.0467617 -0.075
v -0.0675727 0.0325413 -0.095
v -0.0675727 0.0325413 -0.075
v -0.0731196 0.0166891 -0.095
v -0.0731196 0.0166891 -0.075
v -0.075 0 -0.095
v -0.075 0 -0.075
v -0.075 -0.1 -0.075
v -0.075 -0.08 0.075
v -0.075 -0.08 -0.075
v -0.075 -0.1 -0.095
v -0.075 0 0.095
v -0.075 0 0.075
v -0.075 -0.1 0.095
v -0.075 -0.1 0.075
v -0.075 -0.2 0.075
v -0.075 -0.2 -0.075
v -0.075 -0.216689 -0.0731196
v -0.075 -0.232541 -0.0675727
v -0.075 -0.246762 -0.0586374
v -0.075 -0.258637 -0.0467617
v -0.075 -0.267573 -0.0325413
v -0.075 -0.27312 -0.0166891
v -0.075 -0.275 -4.16334e-17
v -0.075 -0.27312 0.0166891
v -0.075 -0.216689 0.0731196
v -0.075 -0.258637 0.0467617
v -0.075 -0.246762 0.0586374
v -0.075 -0.232541 0.0675727
v -0.075 -0.267573 0.0325413
v 0.075 -0.08 0.075
v 0.075 0 0.075
v 0.075 0 0.095
v 0.075 -0.1 0.095
v 0.075 -0.1 0.075
v 0.075 -0.08 -0.075
v 0.075 0 -0.095
v 0.075 0 -0.075
v 0.075 -0.1 -0.095
v 0.075 -0.1 -0.075
v 0.075 -0.2 -0.075
v 0.075 -0.2 0.075
v 0.075 -0.27312 0.0166891
v 0.075 -0.275 -4.16334e-17
v 0.075 -0.27312 -0.0166891
v 0.075 -0.216689 -0.0731196
v 0.075 -0.267573 -0.0325413
v 0.075 -0.258637 -0.0467617
v 0.075 -0.246762 -0.0586374
v 0.075 -0.216689 0.0731196
v 0.075 -0.232541 0.0675727
v 0.075 -0.246762 0.0586374
v 0.075 -0.232541 -0.0675727
v 0.075 -0.258637 0.0467617
v 0.075 -0.267573 0.0325413
v 0.0731196 0.0166891 0.075
v 0.0731196 0.0166891 0.095
v 0.0675727 0.0325413 0.075
v 0.0675727 0.0325413 0.095
v 0.0586374 0.0467617 0.075
v 0.0586374 0.0467617 0.095
v 0.0467617 0.0586374 0.075
v 0.0467617 0.0586374 0.095
v 0.0325413 0.0675727 0.075
v 0.0325413 0.0675727 0.095
v 0.0166891 0.0731196 0.075
v 0.0166891 0.0731196 0.095
v -4.59243e-18 0.075 0.075
v -4.59243e-18 0.075 0.095
v -0.0166891 0.0731196 0.075
v -0.0166891 0.0731196 0.095
v -0.0325413 0.0675727 0.075
v -0.0325413 0.0675727 0.095
v -0.0467617 0.0586374 0.075
v -0.0467617 0.0586374 0.095
v -0.0586374 0.0467617 0.075
v -0.0586374 0.0467617 0.095
v -0.0675727 0.0325413 0.075
v -0.0675727 0.0325413 0.095
v -0.0731196 0.0166891 0.075
v -0.0731196 0.0166891 0.095
v -0.075 0 0.075
v -0.075 0 0.095
v -0.075 -0.1 -0.075
v -0.075 -0.1 -0.095
v 0.075 -0.1 -0.075
v 0.075 -0.1 -0.095
v -0.075 -0.1 0.095
v 0.075 -0.1 0.095
v 0.075 0 0.095
v 0.0731196 0.0166891 0.095
v 0.0675727 0.0325413 0.095
v 0.0586374 0.0467617 0.095
v 0.0467617 0.0586374 0.095
v 0.0325413 0.0675727 0.095
v 0.0166891 0.0731196 0.095
v 0.075 0 -0.095
v -0.075 0 -0.095
v 0.0731196 0.0166891 -0.095
v 0.0675727 0.0325413 -0.095
v -0.0731196 0.0166891 -0.095
v -0.0675727 0.0325413 -0.095
v -0.0586374 0.0467617 -0.095
v -0.0467617 0.0586374 -0.095
v -0.0325413 0.0675727 -0.095
v 0.0166891 0.0731196 -0.095
v 0.0325413 0.0675727 -0.095
v 0.0467617 0.0586374 -0.095
v 0.0586374 0.0467617 -0.095
v -0.0166891 0.0731196 -0.095
v -4.59243e-18 0.075 -0.095
v 0.075 -0.08 -0.075
v -0.075 -0.08 -0.075
v 0.075 -0.08 0.075
v -0.075 -0.08 0.075
v -0.075 0 -0.075
v 0.075 0 -0.075
v 0.0731196 0.0166891 -0.075
v 0.0675727 0.0325413 -0.075
v -4.59243e-18 0.075 -0.075
v -0.0586374 0.0467617 -0.075
v -0.0675727 0.0325413 -0.075
v 0.0586374 0.0467617 -0.075
v 0.0467617 0.0586374 -0.075
v 0.0325413 0.0675727 -0.075
v -0.0467617 0.0586374 -0.075
v -0.0166891 0.0731196 -0.075
v -0.0325413 0.0675727 -0.075
v -0.0731196 0.0166891 -0.075
v 0.0166891 0.0731196 -0.075
v 0.075 0 0.075
v -0.075 0 0.075
v 0.0731196 0.0166891 0.075
v 0.0675727 0.0325413 0.075
v -0.0731196 0.0166891 0.075
v -0.0675727 0.0325413 0.075
v -0.0586374 0.0467617 0.075
v -0.0467617 0.0586374 0.075
v -0.0325413 0.0675727 0.075
v 0.0166891 0.0731196 0.075
v 0.0325413 0.0675727 0.075
v 0.0467617 0.0586374 0.075
v 0.0586374 0.0467617 0.075
v -0.0166891 0.0731196 0.075
v -4.59243e-18 0.075 0.075
v 0.075 -0.2 0.075
v 0.075 -0.1 0.075
v -0.075 -0.2 0.075
v -0.075 -0.1 0.075
v -0.075 -0.216689 0.0731196
v 0.075 -0.216689 0.0731196
v -0.075 -0.232541 0.0675727
v 0.075 -0.232541 0.0675727
v -0.075 -0.246762 0.0586374
v 0.075 -0.246762 0.0586374
v -0.075 -0.258637 0.0467617
v 0.075 -0.258637 0.0467617
v -0.075 -0.267573 0.0325413
v 0.075 -0.267573 0.0325413
v -0.075 -0.27312 0.0166891
v 0.075 -0.27312 0.0166891
v -0.075 -0.275 -4.16334e-17
v 0.075 -0.275 -4.16334e-17
v -0.075 -0.27312 -0.0166891
v 0.075 -0.27312 -0.0166891
v -0.075 -0.267573 -0.0325413
v 0.075 -0.267573 -0.0325413
v -0.075 -0.258637 -0.0467617
v 0.075 -0.258637 -0.0467617
v -0.075 -0.246762 -0.0586374
v 0.075 -0.246762 -0.0586374
v -0.075 -0.232541 -0.0675727
v 0.075 -0.232541 -0.0675727
v -0.075 -0.216689 -0.0731196
v 0.075 -0.216689 -0.0731196
v -0.075 -0.2 -0.075
v 0.075 -0.2 -0.075
v 0.075 -0.1 -0.075
v -0.075 -0.1 -0.075
vn -0 -1 -0
vn 0.993712 0.111965 0
vn 0.943883 0.330279 0
vn 0.846724 0.532032 0
vn 0.707107 0.707107 0
vn 0.532032 0.846724 0
vn 0.330279 0.943883 0
vn 0.111965 0.993712 0
vn -0.111965 0.993712 0
vn -0.330279 0.943883 0
vn -0.532032 0.846724 0
vn -0.707107 0.707107 0
vn -0.846724 0.532032 0
vn -0.943883 0.330279 0
vn -0.993712 0.111965 0
vn -1 0 0
vn 1 0 0
vn 0.993712 0.111965 0
vn 0.943883 0.330279 0
vn 0.846724 0.532032 0
vn 0.707107 0.707107 0
vn 0.532032 0.846724 0
vn 0.330279 0.943883 0
vn 0.111965 0.993712 0
vn -0.111965 0.993712 0
vn -0.330279 0.943883 0
vn -0.532032 0.846724 0
vn -0.707107 0.707107 0
vn -0.846724 0.532032 0
vn -0.943883 0.330279 0
vn -0.993712 0.111965 0
vn 0 -1 0
vn 0 0 1
vn 0 0 -1
vn 0 1 0
vn 0 -0.111965 0.993712
vn 0 -0.330279 0.943883
vn 0 -0.532032 0.846724
vn 0 -0.707107 0.707107
vn 0 -0.846724 0.532032
vn 0 -0.943883 0.330279
vn 0 -0.993712 0.111965
vn -0 -0.993712 -0.111965
vn -0 -0.943883 -0.330279
vn -0 -0.846724 -0.532032
vn -0 -0.707107 -0.707107
vn -0 -0.532032 -0.846724
vn -0 -0.330279 -0.943883
vn -0 -0.111965 -0.993712
vn -0 -0 -1
f 1//1 2//1 3//1
f 3//1 2//1 4//1
f 5//2 6//2 7//2
f 5//2 7//2 8//2
f 8//3 7//3 9//3
f 8//3 9//3 10//3
f 10//4 9//4 11//4
f 10//4 11//4 12//4
f 12//5 11//5 13//5
f 12//5 13//5 14//5
f 14//6 13//6 15//6
f 14//6 15//6 16//6
f 16//7 15//7 17//7
f 16//7 17//7 18//7
f 18//8 17//8 19//8
f 18//8 19//8 20//8
f 20//9 19//9 21//9
f 20//9 21//9 22//9
f 22//10 21//10 23//10
f 22//10 23//10 24//10
f 24//11 23//11 25//11
f 24//11 25//11 26//11
f 26//12 25//12 27//12
f 26//12 27//12 28//12
f 28//13 27//13 29//13
f 28//13 29//13 30//13
f 30//14 29//14 31//14
f 30//14 31//14 32//14
f 32//15 31//15 33//15
f 32//15 33//15 34//15
f 35//16 36//16 37//16
f 34//16 33//16 37//16
f 37//16 33//16 38//16
f 37//16 38//16 35//16
f 39//16 40//16 41//16
f 41//16 40//16 36//16
f 41//16 36//16 42//16
f 42//16 36//16 35//16
f 42//16 35//16 43//16
f 43//16 35//16 44//16
f 44//16 45//16 43//16
f 43//16 45//16 46//16
f 43//16 46//16 47//16
f 47//16 48//16 43//16
f 43//16 48//16 49//16
f 43//16 49//16 50//16
f 50//16 51//16 43//16
f 43//16 51//16 52//16
f 43//16 52//16 53//16
f 54//16 55//16 56//16
f 53//16 52//16 56//16
f 56//16 52//16 57//16
f 56//16 57//16 54//16
f 58//17 59//17 60//17
f 60//17 61//17 58//17
f 58//17 61//17 62//17
f 58//17 62//17 63//17
f 64//17 65//17 66//17
f 66//17 65//17 63//17
f 66//17 63//17 67//17
f 67//17 63//17 62//17
f 67//17 62//17 68//17
f 68//17 62//17 69//17
f 70//17 71//17 68//17
f 68//17 71//17 72//17
f 68//17 72//17 73//17
f 74//17 75//17 76//17
f 69//17 77//17 68//17
f 68//17 77//17 78//17
f 68//17 78//17 79//17
f 74//17 76//17 72//17
f 72//17 76//17 80//17
f 72//17 80//17 73//17
f 79//17 81//17 68//17
f 68//17 81//17 82//17
f 68//17 82//17 70//17
f 60//18 59//18 83//18
f 60//18 83//18 84//18
f 84//19 83//19 85//19
f 84//19 85//19 86//19
f 86//20 85//20 87//20
f 86//20 87//20 88//20
f 88//21 87//21 89//21
f 88//21 89//21 90//21
f 90//22 89//22 91//22
f 90//22 91//22 92//22
f 92//23 91//23 93//23
f 92//23 93//23 94//23
f 94//24 93//24 95//24
f 94//24 95//24 96//24
f 96//25 95//25 97//25
f 96//25 97//25 98//25
f 98//26 97//26 99//26
f 98//26 99//26 100//26
f 100//27 99//27 101//27
f 100//27 101//27 102//27
f 102//28 101//28 103//28
f 102//28 103//28 104//28
f 104//29 103//29 105//29
f 104//29 105//29 106//29
f 106//30 105//30 107//30
f 106//30 107//30 108//30
f 108//31 107//31 109//31
f 108//31 109//31 110//31
f 111//32 112//32 113//32
f 113//32 112//32 114//32
f 110//33 115//33 116//33
f 116//33 117//33 110//33
f 110//33 117//33 118//33
f 110//33 118//33 119//33
f 96//33 104//33 106//33
f 119//33 120//33 110//33
f 110//33 120//33 121//33
f 110//33 121//33 122//33
f 104//33 96//33 102//33
f 102//33 96//33 98//33
f 102//33 98//33 100//33
f 106//33 108//33 96//33
f 96//33 108//33 110//33
f 96//33 110//33 123//33
f 123//33 110//33 122//33
f 114//34 112//34 124//34
f 124//34 112//34 125//34
f 124//34 125//34 126//34
f 126//34 125//34 127//34
f 127//34 125//34 128//34
f 127//34 128//34 129//34
f 129//34 130//34 127//34
f 127//34 130//34 131//34
f 127//34 131//34 132//34
f 133//34 134//34 127//34
f 127//34 134//34 135//34
f 127//34 135//34 136//34
f 132//34 137//34 127//34
f 127//34 137//34 138//34
f 127//34 138//34 133//34
f 139//35 140//35 141//35
f 141//35 140//35 142//35
f 143//33 140//33 139//33
f 139//33 144//33 143//33
f 143//33 144//33 145//33
f 143//33 145//33 146//33
f 147//33 148//33 149//33
f 146//33 150//33 143//33
f 143//33 150//33 151//33
f 143//33 151//33 152//33
f 148//33 147//33 153//33
f 153//33 147//33 154//33
f 153//33 154//33 155//33
f 149//33 156//33 147//33
f 147//33 156//33 143//33
f 147//33 143//33 157//33
f 157//33 143//33 152//33
f 141//34 142//34 158//34
f 158//34 142//34 159//34
f 158//34 159//34 160//34
f 160//34 159//34 161//34
f 161//34 159//34 162//34
f 161//34 162//34 163//34
f 163//34 164//34 161//34
f 161//34 164//34 165//34
f 161//34 165//34 166//34
f 167//34 168//34 161//34
f 161//34 168//34 169//34
f 161//34 169//34 170//34
f 166//34 171//34 161//34
f 161//34 171//34 172//34
f 161//34 172//34 167//34
f 173//33 174//33 175//33
f 175//33 174//33 176//33
f 173//36 175//36 177//36
f 173//36 177//36 178//36
f 178//37 177//37 179//37
f 178//37 179//37 180//37
f 180//38 179//38 181//38
f 180//38 181//38 182//38
f 182//39 181//39 183//39
f 182//39 183//39 184//39
f 184//40 183//40 185//40
f 184//40 185//40 186//40
f 186//41 185//41 187//41
f 186//41 187//41 188//41
f 188//42 187//42 189//42
f 188//42 189//42 190//42
f 190//43 189//43 191//43
f 190//43 191//43 192//43
f 192//44 191//44 193//44
f 192//44 193//44 194//44
f 194//45 193//45 195//45
f 194//45 195//45 196//45
f 196//46 195//46 197//46
f 196//46 197//46 198//46
f 198//47 197//47 199//47
f 198//47 199//47 200//47
f 200//48 199//48 201//48
f 200//48 201//48 202//48
f 202//49 201//49 203//49
f 202//49 203//49 204//49
f 205//50 204//50 206//50
f 206//50 204//50 203//50
