g 0
v -0.075 0 -0.075
v -0.095 0 -0.075
v -0.095 0.0155934 -0.0733611
v -0.075 0.0155934 -0.0733611
v -0.095 0.0305052 -0.0685159
v -0.075 0.0305052 -0.0685159
v -0.095 0.0440839 -0.0606763
v -0.075 0.0440839 -0.0606763
v -0.095 0.0557359 -0.0501848
v -0.075 0.0557359 -0.0501848
v -0.095 0.0649519 -0.0375
v -0.075 0.0649519 -0.0375
v -0.095 0.0713292 -0.0231763
v -0.075 0.0713292 -0.0231763
v -0.095 0.0745891 -0.00783964
v -0.075 0.0745891 -0.00783964
v -0.095 0.0745891 0.00783964
v -0.075 0.0745891 0.00783964
v -0.095 0.0713292 0.0231763
v -0.075 0.0713292 0.0231763
v -0.095 0.0649519 0.0375
v -0.075 0.0649519 0.0375
v -0.095 0.0557359 0.0501848
v -0.075 0.0557359 0.0501848
v -0.095 0.0440839 0.0606763
v -0.075 0.0440839 0.0606763
v -0.095 0.0305052 0.0685159
v -0.075 0.0305052 0.0685159
v -0.095 0.0155934 0.0733611
v -0.075 0.0155934 0.0733611
v -0.095 0 0.075
v -0.075 0 0.075
v -0.075 -0.08 0.075
v -0.15 -0.08 0.075
v -0.15 -0.1 0.075
v -0.095 -0.08 0.075
v 0.15 -0.1 0.075
v 0.15 -0.08 0.075
v 0.095 -0.08 0.075
v 0.095 0 0.075
v 0.075 0 0.075
v 0.075 -0.08 0.075
v 0.095 -0.08 -0.075
v 0.15 -0.08 -0.075
v 0.15 -0.1 -0.075
v -0.095 0 -0.075
v -0.075 0 -0.075
v -0.095 -0.08 -0.075
v -0.075 -0.08 -0.075
v 0.075 -0.08 -0.075
v 0.075 0 -0.075
v 0.095 0 -0.075
v -0.15 -0.1 -0.075
v -0.15 -0.08 -0.075
v 0.075 0.0155934 -0.0733611
v 0.095 0.0155934 -0.0733611
v 0.075 0.0305052 -0.0685159
v 0.095 0.0305052 -0.0685159
v 0.075 0.0440839 -0.0606763
v 0.095 0.0440839 -0.0606763
v 0.075 0.0557359 -0.0501848
v 0.095 0.0557359 -0.0501848
v 0.075 0.0649519 -0.0375
v 0.095 0.0649519 -0.0375
v 0.075 0.0713292 -0.0231763
v 0.095 0.0713292 -0.0231763
v 0.075 0.0745891 -0.00783964
v 0.095 0.0745891 -0.00783964
v 0.075 0.0745891 0.00783964
v 0.095 0.0745891 0.00783964
v 0.075 0.0713292 0.0231763
v 0.095 0.0713292 0.0231763
v 0.075 0.0649519 0.0375
v 0.095 0.0649519 0.0375
v 0.075 0.0557359 0.0501848
v 0.095 0.0557359 0.0501848
v 0.075 0.0440839 0.0606763
v 0.095 0.0440839 0.0606763
v 0.075 0.0305052 0.0685159
v 0.095 0.0305052 0.0685159
v 0.075 0.0155934 0.0733611
v 0.095 0.0155934 0.0733611
v 0.075 0 0.075
v 0.095 0 0.075
v 0.095 -0.08 0.075
v 0.095 -0.08 -0.075
v 0.095 0 -0.075
v 0.095 0.0155934 -0.0733611
v 0.095 0.0305052 -0.0685159
v 0.095 0.0440839 -0.0606763
v 0.095 0.0557359 -0.0501848
v 0.095 0.0649519 -0.0375
v -0.095 -0.08 -0.075
v -0.095 -0.08 0.075
v -0.095 0 -0.075
v -0.095 0 0.075
v -0.095 0.0155934 0.0733611
v -0.095 0.0305052 -0.0685159
v -0.095 0.0155934 -0.0733611
v -0.095 0.0305052 0.0685159
v -0.095 0.0440839 0.0606763
v -0.095 0.0557359 0.0501848
v -0.095 0.0713292 -0.0231763
v -0.095 0.0649519 -0.0375
v -0.095 0.0557359 -0.0501848
v -0.095 0.0649519 0.0375
v -0.095 0.0713292 0.0231763
v -0.095 0.0745891 0.00783964
v -0.095 0.0745891 -0.00783964
v -0.095 0.0440839 -0.0606763
v 0.15 -0.08 0.075
v 0.15 -0.08 -0.075
v 0.095 -0.08 0.075
v 0.095 -0.08 -0.075
v 0.15 -0.1 0.075
v 0.15 -0.1 -0.075
v -0.15 -0.1 -0.075
v -0.15 -0.1 0.075
v -0.15 -0.08 -0.075
v -0.15 -0.08 0.075
v -0.095 -0.08 -0.075
v -0.095 -0.08 0.075
v -0.075 -0.08 -0.075
v -0.075 -0.08 0.075
v 0.075 -0.08 -0.075
v 0.075 -0.08 0.075
v -0.075 0 0.075
v -0.075 0 -0.075
v -0.075 0.0155934 -0.0733611
v -0.075 0.0305052 -0.0685159
v -0.075 0.0440839 -0.0606763
v -0.075 0.0557359 -0.0501848
v -0.075 0.0649519 -0.0375
v -0.075 0.0713292 -0.0231763
v -0.075 0.0745891 -0.00783964
v -0.075 0.0745891 0.00783964
v -0.075 0.0713292 0.0231763
v -0.075 0.0649519 0.0375
v -0.075 0.0305052 0.0685159
v -0.075 0.0155934 0.0733611
v -0.075 0.0440839 0.0606763
v -0.075 0.0557359 0.0501848
v 0.075 0 -0.075
v 0.075 0 0.075
v 0.075 0.0155934 0.0733611
v 0.075 0.0305052 -0.0685159
v 0.075 0.0155934 -0.0733611
v 0.075 0.0305052 0.0685159
v 0.075 0.0440839 0.0606763
v 0.075 0.0557359 0.0501848
v 0.075 0.0713292 -0.0231763
v 0.075 0.0649519 -0.0375
v 0.075 0.0557359 -0.0501848
v 0.075 0.0649519 0.0375
v 0.075 0.0713292 0.0231763
v 0.075 0.0745891 0.00783964
v 0.075 0.0745891 -0.00783964
v 0.075 0.0440839 -0.0606763
vn 0 0.104529 -0.994522
vn 0 0.309017 -0.951057
vn 0 0.5 -0.866025
vn 0 0.669131 -0.743145
vn 0 0.809017 -0.587785
vn 0 0.913545 -0.406737
vn 0 0.978148 -0.207912
vn 0 1 0
vn 0 0.978148 0.207912
vn 0 0.913545 0.406737
vn 0 0.809017 0.587785
vn 0 0.669131 0.743145
vn 0 0.5 0.866025
vn 0 0.309017 0.951057
vn 0 0.104529 0.994522
vn 0 0 1
vn 0 0 -1
vn 0 0.104529 -0.994522
vn 0 0.309017 -0.951057
vn 0 0.5 -0.866025
vn 0 0.669131 -0.743145
vn 0 0.809017 -0.587785
vn 0 0.913545 -0.406737
vn 0 0.978148 -0.207912
vn 0 1 0
vn 0 0.978148 0.207912
vn 0 0.913545 0.406737
vn 0 0.809017 0.587785
vn 0 0.669131 0.743145
vn 0 0.5 0.866025
vn 0 0.309017 0.951057
vn 0 0.104529 0.994522
vn 1 0 0
vn -1 0 0
vn 0 -1 0
f 1//1 2//1 3//1
f 1//1 3//1 4//1
f 4//2 3//2 5//2
f 4//2 5//2 6//2
f 6//3 5//3 7//3
f 6//3 7//3 8//3
f 8//4 7//4 9//4
f 8//4 9//4 10//4
f 10//5 9//5 11//5
f 10//5 11//5 12//5
f 12//6 11//6 13//6
f 12//6 13//6 14//6
f 14//7 13//7 15//7
f 14//7 15//7 16//7
f 16//8 15//8 17//8
f 16//8 17//8 18//8
f 18//9 17//9 19//9
f 18//9 19//9 20//9
f 20//10 19//10 21//10
f 20//10 21//10 22//10
f 22//11 21//11 23//11
f 22//11 23//11 24//11
f 24//12 23//12 25//12
f 24//12 25//12 26//12
f 26//13 25//13 27//13
f 26//13 27//13 28//13
f 28//14 27//14 29//14
f 28//14 29//14 30//14
f 30//15 29//15 31//15
f 30//15 31//15 32//15
f 33//16 32//16 31//16
f 34//16 35//16 36//16
f 36//16 35//16 37//16
f 37//16 38//16 39//16
f 40//16 41//16 39//16
f 39//16 41//16 42//16
f 39//16 42//16 37//16
f 37//16 42//16 33//16
f 37//16 33//16 36//16
f 36//16 33//16 31//16
f 43//17 44//17 45//17
f 46//17 47//17 48//17
f 48//17 47//17 49//17
f 50//17 51//17 52//17
f 52//17 43//17 50//17
f 50//17 43//17 45//17
f 50//17 45//17 49//17
f 49//17 45//17 53//17
f 49//17 53//17 48//17
f 48//17 53//17 54//17
f 52//18 51//18 55//18
f 52//18 55//18 56//18
f 56//19 55//19 57//19
f 56//19 57//19 58//19
f 58//20 57//20 59//20
f 58//20 59//20 60//20
f 60//21 59//21 61//21
f 60//21 61//21 62//21
f 62//22 61//22 63//22
f 62//22 63//22 64//22
f 64//23 63//23 65//23
f 64//23 65//23 66//23
f 66//24 65//24 67//24
f 66//24 67//24 68//24
f 68//25 67//25 69//25
f 68//25 69//25 70//25
f 70//26 69//26 71//26
f 70//26 71//26 72//26
f 72//27 71//27 73//27
f 72//27 73//27 74//27
f 74//28 73//28 75//28
f 74//28 75//28 76//28
f 76//29 75//29 77//29
f 76//29 77//29 78//29
f 78//30 77//30 79//30
f 78//30 79//30 80//30
f 80//31 79//31 81//31
f 80//31 81//31 82//31
f 82//32 81//32 83//32
f 82//32 83//32 84//32
f 85//33 86//33 84//33
f 84//33 86//33 87//33
f 84//33 87//33 88//33
f 88//33 89//33 84//33
f 84//33 89//33 90//33
f 84//33 90//33 91//33
f 91//33 92//33 84//33
f 84//33 92//33 66//33
f 84//33 66//33 68//33
f 68//33 70//33 84//33
f 84//33 70//33 72//33
f 84//33 72//33 74//33
f 80//33 82//33 78//33
f 78//33 82//33 84//33
f 78//33 84//33 76//33
f 76//33 84//33 74//33
f 93//34 94//34 95//34
f 95//34 94//34 96//34
f 97//34 98//34 96//34
f 96//34 98//34 99//34
f 96//34 99//34 95//34
f 97//34 100//34 98//34
f 98//34 100//34 101//34
f 98//34 101//34 102//34
f 103//34 104//34 105//34
f 102//34 106//34 98//34
f 98//34 106//34 107//34
f 98//34 107//34 108//34
f 108//34 109//34 98//34
f 98//34 109//34 103//34
f 98//34 103//34 110//34
f 110//34 103//34 105//34
f 111//25 112//25 113//25
f 113//25 112//25 114//25
f 115//33 116//33 111//33
f 111//33 116//33 112//33
f 117//34 118//34 119//34
f 119//34 118//34 120//34
f 118//35 117//35 115//35
f 115//35 117//35 116//35
f 121//25 119//25 122//25
f 122//25 119//25 120//25
f 123//25 124//25 125//25
f 125//25 124//25 126//25
f 124//33 123//33 127//33
f 127//33 123//33 128//33
f 127//33 128//33 129//33
f 129//33 130//33 127//33
f 127//33 130//33 131//33
f 127//33 131//33 132//33
f 132//33 133//33 127//33
f 127//33 133//33 134//33
f 127//33 134//33 135//33
f 135//33 136//33 127//33
f 127//33 136//33 137//33
f 127//33 137//33 138//33
f 139//33 140//33 141//33
f 141//33 140//33 127//33
f 141//33 127//33 142//33
f 142//33 127//33 138//33
f 125//34 126//34 143//34
f 143//34 126//34 144//34
f 145//34 146//34 144//34
f 144//34 146//34 147//34
f 144//34 147//34 143//34
f 145//34 148//34 146//34
f 146//34 148//34 149//34
f 146//34 149//34 150//34
f 151//34 152//34 153//34
f 150//34 154//34 146//34
f 146//34 154//34 155//34
f 146//34 155//34 156//34
f 156//34 157//34 146//34
f 146//34 157//34 151//34
f 146//34 151//34 158//34
f 158//34 151//34 153//34
