g 0
v 0.1 0.225 -0.2
v 0.1 -0.225 -0.2
v -0.1 0.225 -0.2
v -0.1 -0.225 -0.2
v 0.1 0.225 0.2
v -0.1 0.225 0.2
v 0.1 -0.225 0.2
v -0.1 -0.225 0.2
v 0.075 -0.225 0.05
v -0.075 -0.225 0.05
v -0.075 -0.225 -0.05
v 0.075 -0.225 -0.05
v -0.075 -0.355 0.05
v -0.075 -0.355 -0.05
v -0.0713292 -0.378176 -0.05
v -0.0713292 -0.378176 0.05
v -0.0606763 -0.399084 -0.05
v -0.0606763 -0.399084 0.05
v -0.0440839 -0.415676 -0.05
v -0.0440839 -0.415676 0.05
v -0.0231763 -0.426329 -0.05
v -0.0231763 -0.426329 0.05
v 5.72522e-17 -0.43 -0.05
v 5.72522e-17 -0.43 0.05
v 0.0231763 -0.426329 -0.05
v 0.0231763 -0.426329 0.05
v 0.0440839 -0.415676 -0.05
v 0.0440839 -0.415676 0.05
v 0.0606763 -0.399084 -0.05
v 0.0606763 -0.399084 0.05
v 0.0713292 -0.378176 -0.05
v 0.0713292 -0.378176 0.05
v 0.075 -0.355 -0.05
v 0.075 -0.355 0.05
vn -0 -0 -1
vn 0 1 0
vn 0 0 1
vn 0 -1 0
vn 1 0 0
vn -1 0 0
vn -0.987688 -0.156435 -0
vn -0.891006 -0.453991 -0
vn -0.707107 -0.707107 -0
vn -0.45399 -0.891007 -0
vn -0.156435 -0.987688 -0
vn 0.156435 -0.987688 0
vn 0.45399 -0.891007 0
vn 0.707107 -0.707107 0
vn 0.891006 -0.453991 0
vn 0.987688 -0.156435 0
vn 0 0 -1
f 1//1 2//1 3//1
f 3//1 2//1 4//1
f 5//2 1//2 6//2
f 6//2 1//2 3//2
f 7//3 5//3 8//3
f 8//3 5//3 6//3
f 9//4 7//4 10//4
f 10//4 7//4 8//4
f 10//4 8//4 11//4
f 11//4 8//4 4//4
f 11//4 4//4 12//4
f 12//4 4//4 2//4
f 12//4 2//4 9//4
f 9//4 2//4 7//4
f 5//5 7//5 1//5
f 1//5 7//5 2//5
f 8//6 6//6 4//6
f 4//6 6//6 3//6
f 13//6 10//6 14//6
f 14//6 10//6 11//6
f 13//7 14//7 15//7
f 13//7 15//7 16//7
f 16//8 15//8 17//8
f 16//8 17//8 18//8
f 18//9 17//9 19//9
f 18//9 19//9 20//9
f 20//10 19//10 21//10
f 20//10 21//10 22//10
f 22//11 21//11 23//11
f 22//11 23//11 24//11
f 24//12 23//12 25//12
f 24//12 25//12 26//12
f 26//13 25//13 27//13
f 26//13 27//13 28//13
f 28//14 27//14 29//14
f 28//14 29//14 30//14
f 30//15 29//15 31//15
f 30//15 31//15 32//15
f 32//16 31//16 33//16
f 32//16 33//16 34//16
f 9//5 34//5 12//5
f 12//5 34//5 33//5
f 9//3 10//3 34//3
f 34//3 10//3 13//3
f 34//3 13//3 32//3
f 32//3 13//3 30//3
f 18//3 20//3 28//3
f 30//3 13//3 28//3
f 28//3 13//3 16//3
f 28//3 16//3 18//3
f 20//3 22//3 28//3
f 28//3 22//3 24//3
f 28//3 24//3 26//3
f 11//17 12//17 14//17
f 14//17 12//17 33//17
f 14//17 33//17 31//17
f 31//17 29//17 14//17
f 14//17 29//17 27//17
f 14//17 27//17 15//17
f 15//17 27//17 25//17
f 15//17 25//17 23//17
f 23//17 21//17 15//17
f 15//17 21//17 19//17
f 15//17 19//17 17//17
